<svg width="25" height="25" viewBox="0 0 25 25" fill="none" xmlns="http://www.w3.org/2000/svg">
<path d="M14.5315 18.5098C12.3233 18.5098 10.1143 18.524 7.90613 18.5048C6.14875 18.4898 4.99716 16.9164 5.53213 15.2737C5.62795 14.9784 5.79961 14.6881 6.00293 14.452C6.19458 14.2293 6.25208 14.0424 6.18958 13.7521C5.33797 9.78853 4.49803 5.82334 3.66392 1.85648C3.60559 1.5795 3.50477 1.46521 3.20062 1.47439C2.42317 1.49858 1.64489 1.48523 0.867447 1.48106C0.307486 1.47856 0.00167319 1.21661 6.63231e-06 0.75026C-0.00165992 0.286416 0.310819 0.00694194 0.859115 0.00443918C1.91488 -0.00140057 2.97064 -0.000566323 4.02556 0.00443918C4.58136 0.00694194 4.80551 0.19298 4.923 0.729403C5.08883 1.48857 5.27631 2.2444 5.4038 3.01025C5.46547 3.38316 5.61879 3.47242 5.9746 3.47159C11.7667 3.46157 17.5588 3.46491 23.3501 3.46408C24.24 3.46408 24.5033 3.78944 24.3192 4.65205C23.6342 7.85557 22.9501 11.0599 22.2668 14.2635C22.1302 14.9042 21.9335 15.0635 21.2652 15.0635C16.918 15.0635 12.57 15.0635 8.22278 15.0635C8.05612 15.0635 7.8878 15.0535 7.72365 15.0752C7.24201 15.1386 6.86537 15.5816 6.87287 16.0579C6.8812 16.5501 7.25118 16.9606 7.74698 17.014C7.91197 17.0315 8.08029 17.0257 8.24611 17.0257C12.5658 17.0257 16.8855 17.0257 21.2052 17.0282C21.3835 17.0282 21.571 17.0315 21.7385 17.0841C22.0852 17.1925 22.2585 17.462 22.2335 17.8165C22.2077 18.1878 21.9968 18.4347 21.6135 18.4923C21.4635 18.5148 21.3085 18.5073 21.1561 18.5073C18.9479 18.5073 16.7389 18.5073 14.5307 18.5073L14.5315 18.5098ZM14.6573 7.33917C15.7498 7.33917 16.7889 7.34251 17.828 7.33333C17.9146 7.33333 18.0704 7.25241 18.0771 7.19485C18.1696 6.45904 18.2404 5.72073 18.3179 4.97407H14.6565V7.34001L14.6573 7.33917ZM10.486 7.31164H13.8957V4.97157H10.236C10.3218 5.77662 10.4035 6.54163 10.486 7.31164ZM18.7971 7.33834C19.9103 7.33834 20.9627 7.34084 22.0143 7.33333C22.0935 7.33333 22.2285 7.2691 22.241 7.21153C22.4118 6.47406 22.5651 5.73324 22.7343 4.93903C21.5252 4.93903 20.3894 4.93319 19.2545 4.95071C19.1729 4.95155 19.0354 5.11005 19.0229 5.20766C18.9354 5.89508 18.8737 6.58584 18.7971 7.33834ZM5.83294 4.96406C5.9896 5.71322 6.12959 6.42984 6.30208 7.13812C6.32374 7.22738 6.51873 7.32666 6.63705 7.33083C7.19035 7.35169 7.74448 7.34084 8.2986 7.34084C8.77857 7.34084 9.25771 7.34084 9.771 7.34084C9.68101 6.50826 9.59852 5.74242 9.51436 4.96406H5.83294ZM14.669 8.07999V10.4351H17.7471C17.8288 9.63754 17.9079 8.87169 17.9888 8.07999H14.669ZM10.5685 8.08416C10.6476 8.82664 10.7126 9.54076 10.8118 10.2507C10.8234 10.3366 11.0151 10.4551 11.1267 10.4593C11.6667 10.481 12.2083 10.4693 12.75 10.4693C13.1333 10.4693 13.5157 10.4693 13.8899 10.4693V8.08416H10.5685ZM10.1043 10.4659C10.011 9.61918 9.92683 8.85417 9.84267 8.08916H6.49456C6.65288 8.84249 6.79704 9.55995 6.9612 10.2741C6.9787 10.3517 7.10785 10.4568 7.18618 10.4576C8.13945 10.4701 9.09355 10.4659 10.1043 10.4659ZM18.4654 10.4634C19.477 10.4634 20.4294 10.4668 21.3827 10.4568C21.4552 10.4568 21.576 10.3717 21.5902 10.3074C21.7569 9.5733 21.9068 8.83582 22.0693 8.0608C20.9852 8.0608 19.9753 8.05496 18.9654 8.06998C18.872 8.07165 18.7112 8.19762 18.7004 8.28188C18.6087 8.98014 18.5454 9.68258 18.4662 10.4626L18.4654 10.4634ZM17.6621 11.1867H14.6673V13.5827C15.5214 13.5827 16.3506 13.5902 17.1797 13.5719C17.268 13.5702 17.4171 13.4292 17.4288 13.3391C17.5196 12.6408 17.5846 11.9392 17.6621 11.1867ZM13.9232 13.5819C13.9232 12.8052 13.9291 12.0877 13.9141 11.3703C13.9124 11.3019 13.7866 11.1792 13.7174 11.1784C12.7941 11.165 11.8717 11.1701 10.8984 11.1701C10.9776 11.9392 11.0434 12.6525 11.1334 13.3625C11.1434 13.4442 11.2851 13.571 11.3676 13.5719C12.1958 13.5877 13.0249 13.581 13.9224 13.581L13.9232 13.5819ZM10.4335 13.5819C10.3843 13.1364 10.3493 12.7643 10.301 12.3947C10.2493 12.0001 10.3185 11.437 10.091 11.2568C9.82933 11.0499 9.29937 11.1734 8.88607 11.1684C8.3236 11.1609 7.76114 11.1667 7.14868 11.1667C7.31451 11.9576 7.4595 12.6759 7.62282 13.3892C7.64032 13.4667 7.76614 13.5727 7.84364 13.5735C8.68775 13.5869 9.53102 13.5819 10.4335 13.5819ZM18.1363 13.5835C18.7112 13.5835 19.2204 13.5902 19.7295 13.581C20.1136 13.5744 20.5986 13.6828 20.8502 13.4909C21.0794 13.3174 21.0619 12.8102 21.1411 12.4473C21.2311 12.0377 21.3069 11.6247 21.3985 11.1667C20.4228 11.1667 19.5245 11.16 18.6271 11.1767C18.5346 11.1784 18.3771 11.3135 18.3654 11.402C18.2754 12.1011 18.2138 12.8035 18.1354 13.5827L18.1363 13.5835Z" fill="white"/>
<path d="M19.0196 20.0796C20.3836 20.0771 21.4952 21.1825 21.4894 22.5348C21.4836 23.8954 20.3786 24.9983 19.0204 25C17.6638 25.0017 16.5556 23.8938 16.5547 22.5364C16.5547 21.1699 17.6455 20.0821 19.0196 20.0796ZM19.0162 23.5142C19.5504 23.5167 20.0037 23.0712 20.0087 22.5381C20.0137 22.0109 19.5604 21.562 19.0212 21.5604C18.4804 21.5587 18.038 21.9925 18.0305 22.5331C18.023 23.0554 18.4804 23.5117 19.0162 23.5142Z" fill="white"/>
<path d="M6.1621 22.544C6.15544 21.1699 7.24036 20.0771 8.60944 20.0771C9.97851 20.0771 11.0784 21.1666 11.0826 22.5273C11.0868 23.8863 9.98434 24.9958 8.62694 25C7.26036 25.0042 6.16877 23.9163 6.1621 22.544ZM8.62027 23.515C9.1569 23.515 9.60354 23.0687 9.60104 22.5339C9.59854 21.99 9.1644 21.5612 8.61527 21.5604C8.07531 21.5604 7.632 22.0017 7.63284 22.5389C7.6345 23.0762 8.07864 23.515 8.62027 23.515Z" fill="white"/>
</svg>
