<svg width="353" height="236" viewBox="0 0 353 236" fill="none" xmlns="http://www.w3.org/2000/svg">
<path d="M179.226 18.5513V113.817C179.226 113.817 179.063 116.481 177.207 117.72C175.354 118.958 173.873 118.95 172.513 118.83C172.417 118.822 93.7205 106.092 93.7205 106.092C93.7205 106.092 91.3861 105.673 90.1769 104.492C89.0314 103.376 88.9705 101.585 88.9705 101.585V4.46629C88.9705 4.46629 88.9705 2.4774 91.2498 1.02935C93.3406 -0.299481 95.8055 0.0378156 95.8055 0.0378156L174.67 13.3988C174.67 13.3988 176.99 13.8554 178.153 15.2162C179.417 16.6933 179.226 18.5513 179.226 18.5513Z" fill="#ECAD20"/>
<path d="M131.451 43.7236C133.776 48.0299 132.718 51.685 131.451 51.9554C130.12 52.2374 127.22 47.9427 121.669 46.7505C115.568 45.4392 111.645 48.1986 110.087 47.0588C108.565 45.9451 112.364 42.0516 113.329 41.2724C114.379 40.4262 117.041 38.4199 121.417 38.1407C125.747 37.8645 129.455 40.0308 131.451 43.7236Z" fill="white"/>
<path d="M145.631 46.1981C141.612 48.9837 140.907 52.723 141.916 53.5372C142.975 54.3921 147.501 51.8798 152.988 53.3365C159.022 54.9387 161.273 59.1782 163.178 58.87C165.037 58.5676 163.407 53.3714 162.9 52.2374C162.346 51.0075 160.875 48.0096 157.1 45.7735C153.362 43.5637 149.082 43.8108 145.634 46.1981H145.631Z" fill="white"/>
<path d="M128.571 86.066C142.714 88.8719 155.688 80.2912 159.443 70.1549C160.055 68.5004 159.391 67.3838 157.465 68.1398C156.366 68.5731 145.892 74.7345 131.694 72.3473C121.086 70.5649 113.498 59.1142 113.17 58.5995C112.633 57.7621 110.98 57.5906 110.595 59.373C109.087 74.1007 119.735 84.3155 128.568 86.0689L128.571 86.066Z" fill="white"/>
<path d="M179.246 18.5513V113.817C179.246 113.817 179.408 116.481 181.264 117.72C183.117 118.958 184.599 118.95 185.959 118.83C186.055 118.822 264.751 106.092 264.751 106.092C264.751 106.092 267.086 105.673 268.295 104.492C269.44 103.376 269.501 101.585 269.501 101.585V4.46629C269.501 4.46629 269.501 2.4774 267.222 1.02935C265.131 -0.299481 262.666 0.0378156 262.666 0.0378156L183.802 13.3988C183.802 13.3988 181.482 13.8554 180.319 15.2162C179.055 16.6933 179.246 18.5513 179.246 18.5513Z" fill="#DE3626"/>
<path d="M230.014 44.5901C227.729 40.1762 228.196 36.524 229.489 36.274C230.843 36.0123 233.72 39.2369 239.331 40.5483C245.502 41.9906 247.526 40.9874 250.2 41.63C252.978 42.2959 249.858 50.8039 240.859 51.0482C236.454 51.1674 231.974 48.3789 230.014 44.593V44.5901Z" fill="white"/>
<path d="M218.731 46.2475C219.534 41.3392 217.959 38.0128 216.654 38.1785C215.286 38.3501 213.551 42.3133 208.622 45.3054C203.202 48.5969 200.969 48.2771 198.626 49.7193C196.19 51.2168 201.793 58.332 210.423 55.7616C214.645 54.5025 218.04 50.4579 218.731 46.2475Z" fill="white"/>
<path d="M254.303 78.8024C254.277 78.5902 254.228 78.3634 254.15 78.122C253.996 77.6452 253.819 77.1712 253.63 76.6972C252.146 72.6468 249.559 69.172 246.291 66.3777C243.324 63.8422 239.76 62.0219 235.985 61.0217C232.209 60.0243 228.205 59.8469 224.368 60.6146C223.985 60.6902 223.602 60.7774 223.223 60.8734C219.522 61.8067 216.074 63.6328 213.157 66.0782C210.225 68.5381 207.816 71.6262 206.192 75.0864C204.774 78.1104 203.866 81.4136 203.759 84.7517C203.73 85.2605 203.709 85.7665 203.712 86.2666C203.712 86.5196 203.738 86.7522 203.779 86.9615C203.779 86.9732 203.779 86.9819 203.779 86.9935C204.095 88.8196 205.792 88.7149 206.374 87.8862C206.812 87.2639 207.378 86.7057 207.894 86.1532C209.092 84.8767 210.356 83.6642 211.675 82.5156C215.181 79.4683 219.061 76.9444 223.518 75.5254C225.374 74.9352 227.291 74.5281 229.228 74.3187C233.917 73.8128 238.386 74.5804 242.811 76.0837C245.969 77.1567 249.182 78.5698 251.986 80.3988C252.033 80.4308 252.082 80.4599 252.128 80.4918C252.943 81.0937 254.587 80.6576 254.312 78.8257C254.312 78.8141 254.306 78.8053 254.303 78.7937V78.8024Z" fill="white"/>
<path d="M11.2834 147.702H13.3365L29.8831 164.014H30.637L47.1836 147.702H49.2367L60.5201 197.413H43.2891L39.8702 180.408H39.1191L31.2547 189.067H29.2712L21.4068 180.408H20.6528L17.2339 197.413H0L11.2834 147.702Z" fill="white"/>
<path d="M55.5903 173.482C55.5903 159.633 66.7374 148.388 81.5064 148.388C96.2754 148.388 107.286 159.496 107.286 173.345C107.286 187.195 96.2087 198.439 81.3701 198.439C66.5315 198.439 55.5903 187.332 55.5903 173.482ZM90.9425 173.482C90.9425 168.271 87.0451 163.677 81.3701 163.677C75.6951 163.677 72.0035 168.135 72.0035 173.412C72.0035 178.69 75.9009 183.147 81.5093 183.147C87.1176 183.147 90.9454 178.69 90.9454 173.479L90.9425 173.482Z" fill="white"/>
<path d="M107.283 173.482C107.283 159.633 118.43 148.388 133.199 148.388C147.968 148.388 158.979 159.496 158.979 173.345C158.979 187.195 147.902 198.439 133.063 198.439C118.224 198.439 107.283 187.332 107.283 173.482ZM142.635 173.482C142.635 168.271 138.738 163.677 133.063 163.677C127.388 163.677 123.696 168.135 123.696 173.412C123.696 178.69 127.594 183.147 133.202 183.147C138.811 183.147 142.638 178.69 142.638 173.479L142.635 173.482Z" fill="white"/>
<path d="M179.629 149.415C194.468 149.415 204.997 159.426 204.997 173.276C204.997 187.125 194.398 197.41 179.559 197.41H158.976V149.415H179.629ZM177.851 182.877C184.553 182.877 188.108 179.722 188.108 173.415C188.108 167.108 184.347 163.884 177.648 163.884H175.595V182.877H177.851Z" fill="white"/>
<path d="M205 149.415H245.502L245.572 163.884H221.616V170.467H241.35L232.177 183.493H221.616V197.413H205V149.415Z" fill="white"/>
<path d="M245.212 149.415H261.828V182.944H286.103L286.034 197.413H245.212V149.415Z" fill="white"/>
<path d="M280.996 149.415H297.613V197.41H280.996V149.415Z" fill="white"/>
<path d="M314.023 173.002L298.297 149.415H316.963L325.1 162.305H325.852L333.989 149.415H352.313L336.584 172.863L352.994 197.41H334.325L325.504 183.424H324.819L315.928 197.41H297.604L314.014 172.999L314.023 173.002Z" fill="white"/>
<path d="M140.954 205.077C139.077 204.037 136.737 203.824 134.722 204.577C131.865 205.647 129.983 208.311 127.893 210.535C122.502 216.269 114.681 219.622 106.822 219.59C98.9635 219.558 91.1774 216.156 85.7866 210.422C83.9277 208.445 82.2023 206.11 79.6331 205.243C77.4785 204.516 74.9991 205.013 73.1664 206.366C71.3772 207.686 69.8779 210.09 69.6488 212.332C69.3937 214.815 71.5222 217.517 73.004 219.27C81.4571 229.267 94.4774 235.216 107.547 235.047C120.617 234.879 133.481 228.601 141.676 218.389C142.989 216.752 144.219 214.949 144.599 212.885C145.071 210.314 144.071 207.526 142.076 205.845C141.728 205.551 141.351 205.296 140.954 205.075V205.077Z" fill="white"/>
</svg>
